<svg width="56" height="39" viewBox="0 0 56 39" fill="none" xmlns="http://www.w3.org/2000/svg">
<path d="M12.5 21.5C13.3284 21.5 14 22.1716 14 23C14 23.8284 13.3284 24.5 12.5 24.5H7.5C6.67157 24.5 6 23.8284 6 23C6 22.1716 6.67157 21.5 7.5 21.5H12.5Z" fill="#1F1F1F"/>
<path fill-rule="evenodd" clip-rule="evenodd" d="M24.5 9C27.8137 9 30.5 11.6863 30.5 15C30.5 18.3137 27.8137 21 24.5 21C21.1863 21 18.5 18.3137 18.5 15C18.5 11.6863 21.1863 9 24.5 9ZM24.5 12C22.8431 12 21.5 13.3431 21.5 15C21.5 16.6569 22.8431 18 24.5 18C26.1569 18 27.5 16.6569 27.5 15C27.5 13.3431 26.1569 12 24.5 12Z" fill="#1F1F1F"/>
<path d="M40.6533 5.50781C41.4097 5.58461 42 6.22334 42 7C42 7.77666 41.4097 8.41539 40.6533 8.49219L34.5 8.5C33.6716 8.5 33 7.82843 33 7C33 6.17157 33.6716 5.5 34.5 5.5L40.6533 5.50781Z" fill="#1F1F1F"/>
<path fill-rule="evenodd" clip-rule="evenodd" d="M43.7568 0.00683594C46.3989 0.140529 48.5 2.32472 48.5 5V16.1338C48.4889 16.1318 48.4779 16.1299 48.4668 16.1279C52.462 16.823 55.5 20.3059 55.5 24.5C55.5 29.471 51.0597 33.452 46.1377 32.9561C45.0838 36.4527 41.8403 39 38 39C33.1711 39 29.2366 34.8091 29.5156 30H5.5C2.76766 29.9273 0.57326 27.7525 0.5 25V5C0.5 2.32472 2.60111 0.140529 5.24316 0.00683594H43.7568ZM38 25C34.9624 25 32.5 27.4624 32.5 30.5C32.5 33.5376 34.9624 36 38 36C41.0376 36 43.5 33.5376 43.5 30.5C43.5 27.4624 41.0376 25 38 25ZM47 19C44.5305 19 42.4402 20.6272 41.7451 22.8682C44.4447 24.261 46.2956 26.9112 46.4824 29.9746C49.6552 30.2708 52.5 27.7016 52.5 24.5C52.5 21.4624 50.0376 19 47 19ZM5.5 3C4.39543 3 3.5 3.89543 3.5 5V25C3.5 26.1046 4.39543 27 5.5 27H30.2539C31.6912 23.824 35.322 21.5121 38.8613 22.043C38.7256 22.0226 38.9991 22.0568 38.8613 22.043C39.7749 19.0127 42.334 16.6967 45.5 16.1328V5C45.5 3.96435 44.7128 3.11301 43.7041 3.01074L5.5 3Z" fill="#1F1F1F"/>
</svg>
