<svg width="12" height="12" viewBox="0 0 12 12" fill="none" xmlns="http://www.w3.org/2000/svg">
<path d="M6 5.33333C6.36819 5.33333 6.66667 5.63181 6.66667 6V8.66667C6.66667 9.03486 6.36819 9.33333 6 9.33333C5.63181 9.33333 5.33333 9.03486 5.33333 8.66667V6C5.33333 5.63181 5.63181 5.33333 6 5.33333Z" fill="black"/>
<path d="M6.66667 3.33333C6.66667 2.96514 6.36819 2.66667 6 2.66667C5.63181 2.66667 5.33333 2.96514 5.33333 3.33333V4C5.33333 4.36819 5.63181 4.66667 6 4.66667C6.36819 4.66667 6.66667 4.36819 6.66667 4V3.33333Z" fill="black"/>
<path fill-rule="evenodd" clip-rule="evenodd" d="M6 12C9.31371 12 12 9.31371 12 6C12 2.68629 9.31371 0 6 0C2.68629 0 0 2.68629 0 6C0 9.31371 2.68629 12 6 12ZM6 10.6667C8.57733 10.6667 10.6667 8.57733 10.6667 6C10.6667 3.42267 8.57733 1.33333 6 1.33333C3.42267 1.33333 1.33333 3.42267 1.33333 6C1.33333 8.57733 3.42267 10.6667 6 10.6667Z" fill="black"/>
</svg>
