<svg width="37" height="40" viewBox="0 0 37 40" fill="none" xmlns="http://www.w3.org/2000/svg">
<path fill-rule="evenodd" clip-rule="evenodd" d="M10.2236 20C12.7196 20 14 22.4973 14 24.9355C13.9999 27.3146 12.8267 29.576 10.1816 29.5762H8.81641V30.3037H11.248V32.6436H8.83691V34H6V20H10.2236ZM8.83691 27.1377H10.1387C10.8639 27.1377 11.205 26.0368 11.2051 24.8965C11.2051 23.7757 10.8637 22.6152 10.0957 22.6152H8.83691V27.1377Z" fill="#1F1F1F"/>
<path d="M28 17.5C28.8284 17.5 29.5 18.1716 29.5 19C29.5 19.8284 28.8284 20.5 28 20.5H20C19.1716 20.5 18.5 19.8284 18.5 19C18.5 18.1716 19.1716 17.5 20 17.5H28Z" fill="#1F1F1F"/>
<path d="M27 9.5C27.8284 9.5 28.5 10.1716 28.5 11C28.5 11.8284 27.8284 12.5 27 12.5H9C8.17157 12.5 7.5 11.8284 7.5 11C7.5 10.1716 8.17157 9.5 9 9.5H27Z" fill="#1F1F1F"/>
<path fill-rule="evenodd" clip-rule="evenodd" d="M32 0C34.7614 0 37 2.23858 37 5V35C37 37.7614 34.7614 40 32 40H5L4.74316 39.9932C2.10111 39.8595 0 37.6753 0 35V5C0 2.23858 2.23858 0 5 0H32ZM5 3C3.89543 3 3 3.89543 3 5V35C3 36.1046 3.89543 37 5 37H32C33.1046 37 34 36.1046 34 35V5C34 3.89543 33.1046 3 32 3H5Z" fill="#1F1F1F"/>
</svg>
